<svg width="512" height="512" viewBox="0 0 512 512" fill="none" xmlns="http://www.w3.org/2000/svg">
<path d="M152.948 226.04C152.125 226.04 151.315 225.837 150.589 225.449C149.863 225.06 149.245 224.499 148.788 223.814C148.331 223.129 148.051 222.342 147.971 221.523C147.892 220.704 148.016 219.878 148.332 219.118L168.358 170.98C168.867 169.754 169.842 168.781 171.069 168.275C172.296 167.768 173.673 167.77 174.899 168.279C176.125 168.788 177.098 169.763 177.604 170.99C178.111 172.217 178.109 173.594 177.6 174.82L157.566 222.958C157.187 223.871 156.546 224.65 155.724 225.199C154.902 225.747 153.936 226.04 152.948 226.04Z" fill="white"/>
<path d="M202.858 225.876C201.869 225.876 200.902 225.583 200.08 225.034C199.257 224.484 198.616 223.703 198.238 222.79C197.859 221.876 197.76 220.87 197.953 219.9C198.146 218.93 198.623 218.039 199.322 217.34L219.694 196.968L199.322 176.6C198.844 176.139 198.464 175.587 198.201 174.977C197.939 174.367 197.801 173.711 197.796 173.047C197.79 172.383 197.916 171.725 198.168 171.11C198.419 170.496 198.791 169.937 199.26 169.468C199.729 168.999 200.288 168.627 200.902 168.376C201.517 168.124 202.175 167.998 202.839 168.004C203.503 168.01 204.159 168.147 204.769 168.41C205.379 168.672 205.931 169.052 206.392 169.53L230.298 193.436C231.235 194.374 231.762 195.645 231.762 196.971C231.762 198.297 231.235 199.568 230.298 200.506L206.4 224.41C205.935 224.876 205.383 225.245 204.775 225.497C204.168 225.749 203.516 225.877 202.858 225.876V225.876Z" fill="white"/>
<path d="M123.068 225.876C122.411 225.876 121.761 225.747 121.155 225.495C120.548 225.244 119.998 224.875 119.534 224.41L95.626 200.504C94.6887 199.566 94.1621 198.295 94.1621 196.969C94.1621 195.643 94.6887 194.372 95.626 193.434L119.534 169.528C119.994 169.045 120.546 168.66 121.158 168.394C121.769 168.128 122.427 167.987 123.094 167.979C123.761 167.971 124.423 168.097 125.04 168.349C125.657 168.6 126.218 168.973 126.69 169.445C127.161 169.916 127.533 170.477 127.784 171.095C128.035 171.713 128.161 172.374 128.152 173.041C128.144 173.708 128.002 174.366 127.736 174.977C127.469 175.589 127.083 176.14 126.6 176.6L106.232 196.968L126.6 217.34C127.299 218.039 127.776 218.93 127.969 219.9C128.162 220.87 128.063 221.876 127.684 222.79C127.306 223.703 126.665 224.484 125.842 225.034C125.02 225.583 124.053 225.876 123.064 225.876H123.068Z" fill="white"/>
<path d="M120.212 270.104H99.162C97.8359 270.104 96.5641 269.577 95.6264 268.64C94.6888 267.702 94.162 266.43 94.162 265.104C94.162 263.778 94.6888 262.506 95.6264 261.568C96.5641 260.631 97.8359 260.104 99.162 260.104H120.212C121.538 260.104 122.81 260.631 123.748 261.568C124.685 262.506 125.212 263.778 125.212 265.104C125.212 266.43 124.685 267.702 123.748 268.64C122.81 269.577 121.538 270.104 120.212 270.104Z" fill="white"/>
<path d="M120.212 358.324H99.162C97.8359 358.324 96.5641 357.797 95.6264 356.859C94.6888 355.922 94.162 354.65 94.162 353.324C94.162 351.998 94.6888 350.726 95.6264 349.788C96.5641 348.851 97.8359 348.324 99.162 348.324H120.212C121.538 348.324 122.81 348.851 123.748 349.788C124.685 350.726 125.212 351.998 125.212 353.324C125.212 354.65 124.685 355.922 123.748 356.859C122.81 357.797 121.538 358.324 120.212 358.324Z" fill="white"/>
<path d="M464.666 57.2H47.334C46.0079 57.2 44.7361 57.7268 43.7985 58.6645C42.8608 59.6022 42.334 60.8739 42.334 62.2V449.8C42.334 451.126 42.8608 452.398 43.7985 453.336C44.7361 454.273 46.0079 454.8 47.334 454.8H464.666C465.992 454.8 467.264 454.273 468.202 453.336C469.139 452.398 469.666 451.126 469.666 449.8V62.2C469.666 60.8739 469.139 59.6022 468.202 58.6645C467.264 57.7268 465.992 57.2 464.666 57.2V57.2ZM459.666 67.2V110.2H52.334V67.2H459.666ZM52.334 444.8V120.2H459.666V444.8H52.334Z" fill="white"/>
<path d="M78 93.2H100C101.326 93.2 102.598 92.6732 103.536 91.7355C104.473 90.7979 105 89.5261 105 88.2C105 86.8739 104.473 85.6022 103.536 84.6645C102.598 83.7268 101.326 83.2 100 83.2H78C76.6739 83.2 75.4021 83.7268 74.4645 84.6645C73.5268 85.6022 73 86.8739 73 88.2C73 89.5261 73.5268 90.7979 74.4645 91.7355C75.4021 92.6732 76.6739 93.2 78 93.2Z" fill="white"/>
<path d="M125.162 93.2H147.162C148.488 93.2 149.76 92.6732 150.698 91.7355C151.635 90.7979 152.162 89.5261 152.162 88.2C152.162 86.8739 151.635 85.6022 150.698 84.6645C149.76 83.7268 148.488 83.2 147.162 83.2H125.162C123.836 83.2 122.564 83.7268 121.626 84.6645C120.689 85.6022 120.162 86.8739 120.162 88.2C120.162 89.5261 120.689 90.7979 121.626 91.7355C122.564 92.6732 123.836 93.2 125.162 93.2Z" fill="white"/>
<path d="M172.324 93.2H194.324C195.65 93.2 196.922 92.6732 197.859 91.7355C198.797 90.7979 199.324 89.5261 199.324 88.2C199.324 86.8739 198.797 85.6022 197.859 84.6645C196.922 83.7268 195.65 83.2 194.324 83.2H172.324C170.998 83.2 169.726 83.7268 168.788 84.6645C167.851 85.6022 167.324 86.8739 167.324 88.2C167.324 89.5261 167.851 90.7979 168.788 91.7355C169.726 92.6732 170.998 93.2 172.324 93.2V93.2Z" fill="white"/>
<path d="M411.324 93.2H433.324C434.65 93.2 435.922 92.6732 436.859 91.7355C437.797 90.7979 438.324 89.5261 438.324 88.2C438.324 86.8739 437.797 85.6022 436.859 84.6645C435.922 83.7268 434.65 83.2 433.324 83.2H411.324C409.998 83.2 408.726 83.7268 407.788 84.6645C406.851 85.6022 406.324 86.8739 406.324 88.2C406.324 89.5261 406.851 90.7979 407.788 91.7355C408.726 92.6732 409.998 93.2 411.324 93.2V93.2Z" fill="white"/>
<path d="M140.212 270.104H214.878C216.204 270.104 217.476 269.577 218.414 268.64C219.351 267.702 219.878 266.43 219.878 265.104C219.878 263.778 219.351 262.506 218.414 261.568C217.476 260.631 216.204 260.104 214.878 260.104H140.212C138.886 260.104 137.614 260.631 136.676 261.568C135.739 262.506 135.212 263.778 135.212 265.104C135.212 266.43 135.739 267.702 136.676 268.64C137.614 269.577 138.886 270.104 140.212 270.104V270.104Z" fill="white"/>
<path d="M140.212 358.324H157.546C158.872 358.324 160.144 357.797 161.082 356.859C162.019 355.922 162.546 354.65 162.546 353.324C162.546 351.998 162.019 350.726 161.082 349.788C160.144 348.851 158.872 348.324 157.546 348.324H140.212C138.886 348.324 137.614 348.851 136.676 349.788C135.739 350.726 135.212 351.998 135.212 353.324C135.212 354.65 135.739 355.922 136.676 356.859C137.614 357.797 138.886 358.324 140.212 358.324V358.324Z" fill="white"/>
<path d="M223.374 348.324H177.546C176.22 348.324 174.948 348.851 174.01 349.788C173.073 350.726 172.546 351.998 172.546 353.324C172.546 354.65 173.073 355.922 174.01 356.859C174.948 357.797 176.22 358.324 177.546 358.324H223.374C224.7 358.324 225.972 357.797 226.91 356.859C227.847 355.922 228.374 354.65 228.374 353.324C228.374 351.998 227.847 350.726 226.91 349.788C225.972 348.851 224.7 348.324 223.374 348.324V348.324Z" fill="white"/>
<path d="M208.054 377.73H140.212C138.886 377.73 137.614 378.257 136.676 379.194C135.739 380.132 135.212 381.404 135.212 382.73C135.212 384.056 135.739 385.328 136.676 386.266C137.614 387.203 138.886 387.73 140.212 387.73H208.054C209.38 387.73 210.652 387.203 211.59 386.266C212.527 385.328 213.054 384.056 213.054 382.73C213.054 381.404 212.527 380.132 211.59 379.194C210.652 378.257 209.38 377.73 208.054 377.73V377.73Z" fill="white"/>
<path d="M140.212 299.51H181.878C183.204 299.51 184.476 298.983 185.414 298.046C186.351 297.108 186.878 295.836 186.878 294.51C186.878 293.184 186.351 291.912 185.414 290.974C184.476 290.037 183.204 289.51 181.878 289.51H140.212C138.886 289.51 137.614 290.037 136.676 290.974C135.739 291.912 135.212 293.184 135.212 294.51C135.212 295.836 135.739 297.108 136.676 298.046C137.614 298.983 138.886 299.51 140.212 299.51V299.51Z" fill="white"/>
<path d="M254.232 289.51H201.878C200.552 289.51 199.28 290.037 198.342 290.974C197.405 291.912 196.878 293.184 196.878 294.51C196.878 295.836 197.405 297.108 198.342 298.046C199.28 298.983 200.552 299.51 201.878 299.51H254.232C255.558 299.51 256.83 298.983 257.767 298.046C258.705 297.108 259.232 295.836 259.232 294.51C259.232 293.184 258.705 291.912 257.767 290.974C256.83 290.037 255.558 289.51 254.232 289.51V289.51Z" fill="white"/>
<path d="M140.212 328.918H181.878C183.204 328.918 184.476 328.391 185.414 327.453C186.351 326.516 186.878 325.244 186.878 323.918C186.878 322.592 186.351 321.32 185.414 320.382C184.476 319.445 183.204 318.918 181.878 318.918H140.212C138.886 318.918 137.614 319.445 136.676 320.382C135.739 321.32 135.212 322.592 135.212 323.918C135.212 325.244 135.739 326.516 136.676 327.453C137.614 328.391 138.886 328.918 140.212 328.918V328.918Z" fill="white"/>
<path d="M238.8 318.918H201.878C200.552 318.918 199.28 319.445 198.342 320.382C197.405 321.32 196.878 322.592 196.878 323.918C196.878 325.244 197.405 326.516 198.342 327.453C199.28 328.391 200.552 328.918 201.878 328.918H238.8C240.126 328.918 241.398 328.391 242.335 327.453C243.273 326.516 243.8 325.244 243.8 323.918C243.8 322.592 243.273 321.32 242.335 320.382C241.398 319.445 240.126 318.918 238.8 318.918Z" fill="white"/>
<path d="M352.162 342.436C350.836 342.436 349.564 341.909 348.627 340.972C347.689 340.034 347.162 338.762 347.162 337.436V208.532C347.162 207.206 347.689 205.934 348.627 204.996C349.564 204.059 350.836 203.532 352.162 203.532C353.488 203.532 354.76 204.059 355.698 204.996C356.635 205.934 357.162 207.206 357.162 208.532V337.436C357.162 338.762 356.635 340.034 355.698 340.972C354.76 341.909 353.488 342.436 352.162 342.436V342.436Z" fill="white"/>
<path d="M390.272 205.966V180.23C390.261 171.882 386.941 163.88 381.038 157.977C375.135 152.075 367.132 148.754 358.784 148.744H345.54C337.192 148.753 329.188 152.073 323.285 157.976C317.381 163.878 314.06 171.882 314.05 180.23V339.63C314.056 344.317 315.171 348.935 317.304 353.108L341.818 400.908C342.794 402.811 344.275 404.408 346.1 405.523C347.925 406.638 350.022 407.228 352.16 407.228C354.298 407.228 356.395 406.638 358.22 405.523C360.045 404.408 361.526 402.811 362.502 400.908L387.018 353.108C389.15 348.935 390.264 344.318 390.27 339.632V205.972L390.272 205.966ZM345.542 158.744H358.786C364.483 158.751 369.944 161.017 373.972 165.045C378 169.072 380.267 174.533 380.274 180.23V200.968H324.052V180.23C324.059 174.533 326.325 169.071 330.354 165.043C334.383 161.015 339.845 158.75 345.542 158.744V158.744ZM353.606 396.344C353.47 396.609 353.263 396.832 353.008 396.987C352.753 397.143 352.46 397.225 352.162 397.225C351.864 397.225 351.571 397.143 351.316 396.987C351.062 396.832 350.855 396.609 350.718 396.344L344.472 384.164H359.852L353.606 396.344ZM378.122 348.544L364.98 374.166H339.344L326.2 348.544C325.568 347.295 325.073 345.983 324.722 344.628H379.6C379.248 345.982 378.753 347.295 378.122 348.544ZM324.052 334.628V210.968H380.272V334.628H324.052Z" fill="white"/>
</svg>
